<?xml version="1.0" encoding="utf-8"?>
<!-- Generator: Adobe Illustrator 22.1.0, SVG Export Plug-In . SVG Version: 6.00 Build 0)  -->
<svg version="1.1" id="Capa_1" xmlns="http://www.w3.org/2000/svg" xmlns:xlink="http://www.w3.org/1999/xlink" x="0px" y="0px"
	 viewBox="0 0 45 58" style="enable-background:new 0 0 45 58;" xml:space="preserve">
<style type="text/css">
	.st0{fill:#FFFFFF;}
</style>
<g>
	<path class="st0" d="M44.4,12.2L43,10.8l-9.5-9.5l0,0l-0.8-0.8C32.5,0.2,32,0,31.5,0h-29C1.1,0,0,1.1,0,2.5V39v16.5
		C0,56.9,1.1,58,2.5,58h40c1.4,0,2.5-1.1,2.5-2.5V39V13.5C45,13,44.8,12.5,44.4,12.2z M33,12V3.6l8.4,8.4H39H33z M34,14h2.7
		c-0.3,0.6-1,1-1.7,1s-1.4-0.4-1.7-1C33.5,14,33.8,14,34,14z M43,55.5c0,0.3-0.2,0.5-0.5,0.5h-40C2.2,56,2,55.8,2,55.5V41h41V55.5z
		 M2,39V2.5C2,2.2,2.2,2,2.5,2h28.6c0,0.1-0.1,0.3-0.1,0.4V12v0.5c-3.1,1-5.5,3.4-6.5,6.4C23.8,18.3,23,18,22,18
		c-1.9,0-3.4,1.3-3.9,3H15v-2H9v6h6v-2h2.9c-0.3,2.7-2,5-4.4,6.2c-0.7-1.3-2-2.2-3.5-2.2c-2.2,0-4,1.8-4,4s1.8,4,4,4
		c2.1,0,3.9-1.7,4-3.8c2.7-1.2,4.6-3.4,5.5-6.1C20.2,25.7,21,26,22,26c1.9,0,3.4-1.3,3.9-3H29v2h6v-6h-6v2h-2.9
		c0.4-3,2.4-5.5,5.2-6.5c0.6,1.5,2,2.5,3.7,2.5c1.9,0,3.4-1.3,3.9-3h3.8c0.1,0,0.3,0,0.4-0.1V39H2z M24,22c0,1.1-0.9,2-2,2
		s-2-0.9-2-2s0.9-2,2-2S24,20.9,24,22z M13,23h-2v-2h2V23z M12,31c0,1.1-0.9,2-2,2s-2-0.9-2-2c0-1.1,0.9-2,2-2S12,29.9,12,31z
		 M31,21h2v2h-2V21z"/>
	<path class="st0" d="M17,51.9h3.8l0.7,2.1h1.7l-3.5-10.1h-1.6L14.6,54h1.7L17,51.9z M18.9,46.5l1.5,4.3h-3L18.9,46.5z"/>
	<rect x="25.4" y="43.9" class="st0" width="1.7" height="10.1"/>
</g>
</svg>
