<?xml version="1.0" encoding="utf-8"?>
<!-- Generator: Adobe Illustrator 22.1.0, SVG Export Plug-In . SVG Version: 6.00 Build 0)  -->
<svg version="1.1" id="Capa_1" xmlns="http://www.w3.org/2000/svg" xmlns:xlink="http://www.w3.org/1999/xlink" x="0px" y="0px"
	 viewBox="0 0 45.8 58" style="enable-background:new 0 0 45.8 58;" xml:space="preserve">
<style type="text/css">
	.st0{fill:#FFFFFF;}
</style>
<g>
	<path class="st0" d="M45.2,12.2l-1.4-1.4l-9.5-9.5l0,0l-0.8-0.8C33.3,0.2,32.8,0,32.3,0h-29C2.1,0,0.8,0.9,0.8,2.9V39v16.5V56
		c0,0.8,0.8,1.7,1.8,1.9c0.1,0,0.1,0,0.2,0c0.2,0,0.3,0,0.5,0h40c0.2,0,0.3,0,0.5,0c0.1,0,0.1,0,0.2,0c1-0.3,1.8-1.1,1.8-1.9v-0.5
		V39V14C45.8,13.2,45.7,12.6,45.2,12.2z M33.8,3.6l8.4,8.4h-8.4V3.6z M3.3,56c-0.1,0-0.1,0-0.2,0c-0.2-0.1-0.3-0.2-0.3-0.4V41h41
		v14.5c0,0.2-0.1,0.3-0.3,0.4c-0.1,0-0.1,0-0.2,0L3.3,56L3.3,56z M2.8,39V2.9c0-0.2,0-0.9,0.5-0.9h28.6c0,0.1-0.1,0.3-0.1,0.4v11.4
		c-0.5-0.5-1.2-0.8-2-0.8c-0.6,0-1,0.4-1,1s0.4,1,1,1s1,0.4,1,1v4c0,1.2,0.5,2.3,1.4,3c-0.8,0.7-1.4,1.8-1.4,3v4c0,0.6-0.4,1-1,1
		s-1,0.4-1,1c0,0.6,0.4,1,1,1c1.7,0,3-1.3,3-3v-4c0-1.1,0.9-2,2-2c0.6,0,1-0.4,1-1s-0.4-1-1-1c-1.1,0-2-0.9-2-2v-4
		c0-0.8-0.3-1.5-0.8-2h11.4c0.1,0,0.3,0,0.4-0.1l0,0v25L2.8,39L2.8,39z"/>
	<path class="st0" d="M14.3,46c0.2-0.3,0.5-0.5,0.8-0.6s0.6-0.2,1-0.2c0.3,0,0.6,0.1,0.9,0.2s0.5,0.3,0.8,0.6l1.1-1
		c-0.4-0.4-0.8-0.6-1.3-0.8s-1-0.3-1.5-0.3c-0.6,0-1.1,0.1-1.7,0.3s-1,0.5-1.3,1s-0.7,1-0.9,1.6c-0.2,0.6-0.3,1.4-0.3,2.2
		s0.1,1.6,0.3,2.2c0.2,0.6,0.5,1.2,0.9,1.6s0.8,0.8,1.3,1s1.1,0.3,1.7,0.3c0.5,0,1.1-0.1,1.5-0.3s0.9-0.5,1.3-0.8l-1.1-1
		c-0.2,0.3-0.5,0.5-0.8,0.6s-0.6,0.2-0.9,0.2s-0.6-0.1-0.9-0.2s-0.6-0.4-0.8-0.7s-0.4-0.7-0.5-1.2s-0.2-1.1-0.2-1.8s0.1-1.3,0.2-1.8
		S14,46.3,14.3,46z"/>
	<path class="st0" d="M25.8,49.1c-0.3-0.2-0.7-0.4-1-0.6s-0.7-0.3-1-0.5s-0.6-0.4-0.8-0.6s-0.3-0.5-0.3-0.9c0-0.1,0-0.3,0.1-0.5
		s0.2-0.3,0.3-0.4s0.3-0.2,0.4-0.3s0.3-0.1,0.5-0.2c0.3,0,0.6,0,0.8,0s0.4,0,0.5,0.1s0.2,0.1,0.3,0.1s0.1,0.1,0.2,0.1
		c0,0,0-0.1,0.1-0.1s0.1-0.2,0.2-0.3s0.1-0.3,0.2-0.4s0.1-0.3,0.2-0.4c-0.3-0.2-0.6-0.3-1-0.4s-0.9-0.1-1.3-0.1s-0.8,0.1-1.2,0.2
		s-0.7,0.3-1,0.6s-0.5,0.5-0.7,0.9S21,46.1,21,46.6s0.1,0.9,0.3,1.2s0.5,0.6,0.8,0.9s0.7,0.5,1,0.6s0.7,0.4,1,0.5s0.6,0.4,0.8,0.6
		s0.3,0.5,0.3,0.8c0,0.5-0.1,0.9-0.4,1.2s-0.7,0.4-1.3,0.4c-0.2,0-0.4,0-0.6-0.1s-0.4-0.1-0.6-0.1s-0.4-0.1-0.6-0.2
		s-0.4-0.1-0.5-0.2l-0.3,1.2c0.2,0.1,0.3,0.3,0.6,0.3s0.4,0.2,0.7,0.2s0.5,0.1,0.7,0.1s0.5,0,0.7,0c0.5,0,1-0.1,1.4-0.2
		s0.7-0.4,1-0.6s0.5-0.6,0.6-0.9s0.2-0.7,0.2-1.1c0-0.5-0.1-1-0.3-1.3S26,49.3,25.8,49.1z"/>
	<path class="st0" d="M33.2,49.1c-0.3-0.2-0.7-0.4-1-0.6s-0.7-0.3-1-0.5s-0.6-0.4-0.8-0.6s-0.3-0.5-0.3-0.9c0-0.1,0-0.3,0.1-0.5
		s0.2-0.3,0.3-0.4s0.3-0.2,0.4-0.3s0.3-0.1,0.5-0.2c0.3,0,0.6,0,0.8,0s0.4,0,0.5,0.1s0.2,0.1,0.3,0.1s0.1,0.1,0.2,0.1
		c0,0,0-0.1,0.1-0.1s0.1-0.2,0.2-0.3s0.1-0.3,0.2-0.4s0.1-0.3,0.2-0.4c-0.3-0.2-0.6-0.3-1-0.4s-0.9-0.1-1.3-0.1
		c-0.4,0-0.8,0.1-1.2,0.2s-0.7,0.3-1,0.6s-0.5,0.5-0.7,0.9s-0.2,0.7-0.2,1.2s0.1,0.9,0.3,1.2s0.5,0.6,0.8,0.9s0.7,0.5,1,0.6
		s0.7,0.4,1,0.5s0.6,0.4,0.8,0.6s0.3,0.5,0.3,0.8c0,0.5-0.1,0.9-0.4,1.2s-0.7,0.4-1.3,0.4c-0.2,0-0.4,0-0.6-0.1s-0.4-0.1-0.6-0.1
		s-0.4-0.1-0.6-0.2s-0.4-0.1-0.5-0.2l-0.3,1.2c0.2,0.1,0.3,0.3,0.6,0.3s0.4,0.2,0.7,0.2s0.5,0.1,0.7,0.1s0.5,0,0.7,0
		c0.5,0,1-0.1,1.4-0.2s0.7-0.4,1-0.6s0.5-0.6,0.6-0.9s0.2-0.7,0.2-1.1c0-0.5-0.1-1-0.3-1.3S33.5,49.3,33.2,49.1z"/>
	<path class="st0" d="M14.8,20v-4c0-0.6,0.4-1,1-1s1-0.4,1-1s-0.4-1-1-1c-1.7,0-3,1.3-3,3v4c0,1.1-0.9,2-2,2c-0.6,0-1,0.4-1,1
		s0.4,1,1,1c1.1,0,2,0.9,2,2v4c0,1.7,1.3,3,3,3c0.6,0,1-0.4,1-1c0-0.6-0.4-1-1-1s-1-0.4-1-1v-4c0-1.2-0.5-2.3-1.4-3
		C14.3,22.3,14.8,21.2,14.8,20z"/>
</g>
</svg>
