<?xml version="1.0" encoding="utf-8"?>
<!-- Generator: Adobe Illustrator 22.1.0, SVG Export Plug-In . SVG Version: 6.00 Build 0)  -->
<svg version="1.1" id="Calque_1" xmlns="http://www.w3.org/2000/svg" xmlns:xlink="http://www.w3.org/1999/xlink" x="0px" y="0px"
	 viewBox="0 0 244.9 313" style="enable-background:new 0 0 244.9 313;" xml:space="preserve">
<style type="text/css">
	.st0{fill:none;stroke:#FFFFFF;stroke-width:10;stroke-linejoin:bevel;}
	.st1{fill:none;stroke:#FFFFFF;stroke-width:3;stroke-miterlimit:10;}
	.st2{fill:#FFFFFF;stroke:#FFFFFF;stroke-width:1.34;stroke-linejoin:bevel;}
	.st3{fill:#FFFFFF;stroke:#FFFFFF;stroke-width:2.35;stroke-linejoin:bevel;}
	.st4{fill:none;}
	.st5{fill:none;stroke:#FFFFFF;stroke-width:4.69;stroke-miterlimit:10;}
	.st6{fill:#FFFFFF;stroke:#FFFFFF;stroke-width:2;stroke-linecap:square;stroke-linejoin:bevel;}
	.st7{fill:none;stroke:#FFFFFF;stroke-width:6.57;stroke-linejoin:bevel;}
</style>
<title>Plan de travail 1</title>
<path class="st0" d="M238.5,68.2l-57.1-57.1l0,0l-4-4.1c-1.9-1.9-4.4-2.9-7-2.9H17.8c-7.2,0-13,5.8-13,13v279
	c0,7.1,5.8,12.9,13,12.9h210.7c7.1,0,12.9-5.8,12.9-12.9v-221C241.4,72.5,240.4,70,238.5,68.2L238.5,68.2z M178.3,67.2l-1-60.2
	l61.2,61.2L178.3,67.2z"/>
<path class="st1" d="M68.4,149.2c-14.8-2.5-24.1-13.6-24.5-26.1c-0.6-17.5,9-27.3,26-30.8c-6.2-0.4-12.1-3-16.7-7.3
	c-8.3-8-11.2-17.7-7.9-28.7c3.2-10.6,10.6-17,21.3-19.5c1.7-0.4,3.5-0.5,5.3-0.5c19.1-0.1,38.2-0.3,57.3-0.2
	c11.1,0.1,19.4,5.4,24.5,15.2c8.6,16.5-0.3,35.7-18.4,40.5c-0.9,0.2-1.8,0.4-2.8,0.8c7.3,1.1,13.9,5,18.4,10.8
	c4.7,5.7,6.8,13,6,20.4c-1.4,13.6-12.2,24.3-25.8,25.5c-14.2,1.2-27.9-8.3-30.8-24.5v24.1c0,10.1,0.1,20.2,0,30.3
	c-0.1,10.3-7.9,21.1-17.8,24.7c-14.6,5.4-29.6-0.5-36.2-14.5c-6.1-12.9-1.5-28.4,10.6-35.9c1.7-1,3.5-1.9,5.4-2.6
	C64.3,150.2,66.2,149.8,68.4,149.2z"/>
<path class="st2" d="M100.3,117.1c0-7.9,0-15.5,0-23.1c0-1,0.4-1.4,1.4-1.4c7.5,0,15,0,22.5,0.1C111.1,95.7,103.1,103.6,100.3,117.1
	z"/>
<path class="st3" d="M102,107.9c0-4.3,0-8.4,0-12.5c0-0.6,0.2-0.8,0.8-0.8c4.1,0,8.1,0,12.2,0C107.8,96.3,103.5,100.6,102,107.9z"/>
<path class="st4" d="M101.7,89.3h2v-53h-3.4v53.2C100.8,89.3,101.2,89.3,101.7,89.3z"/>
<path class="st4" d="M103.6,140.5c4.7,6.1,11.6,10.3,19.2,11.7C115.2,150.8,108.4,146.6,103.6,140.5z"/>
<path class="st4" d="M124.1,92.7h0.4l-0.4-3.3l0,0L124.1,92.7z"/>
<path class="st4" d="M100.3,89.4V94h3.4v-4.7h-2C101.2,89.3,100.7,89.3,100.3,89.4z"/>
<path class="st4" d="M124.5,92.7h7.9v-3.3h-8.3l0,0L124.5,92.7z"/>
<path class="st4" d="M128.7,152.7c0.9,0,1.8,0,2.6-0.1C130.5,152.7,129.6,152.7,128.7,152.7z"/>
<path class="st4" d="M128.7,152.7"/>
<path class="st4" d="M96.6,32.9c6,0,12.1-0.1,18.1-0.1C108.7,32.8,102.6,32.9,96.6,32.9z"/>
<path class="st4" d="M103.6,140.5L103.6,140.5z"/>
<path class="st4" d="M96.6,32.9L85.1,33L71.8,33L85.1,33L96.6,32.9z"/>
<path class="st4" d="M96.9,117.1L96.9,117.1l3.4,0.4l0,0l3.3,0.3c0-0.1,0.1-0.2,0.1-0.3v-0.4H96.9z"/>
<path class="st4" d="M98.2,90.5c-0.7,0.7-1.1,1.6-1.2,2.5C97.1,92.1,97.5,91.2,98.2,90.5z"/>
<path class="st4" d="M124.5,92.7l0.4,3.3l-0.3,0.1h7.9v-3.3H124.5z"/>
<path class="st5" d="M153.5,101.3c-2.9-3.7-6.5-6.7-10.7-8.8c6.6-3.3,11.8-8.7,14.8-15.4c3.8-8.8,3.5-18.8-1-27.2
	c-5.7-11-15.2-16.9-27.4-17c-4.5,0-9.3,0-14.4,0c-6,0-12.1,0-18.1,0.1l-11.5,0.1L71.9,33c-2,0-4.1,0.2-6.1,0.6
	C53.6,36.4,45.4,44,42,55.4c-3.6,12.1-0.6,23.2,8.8,32.1c2.2,2.1,4.7,3.8,7.4,5.1c-12.1,5.7-18.2,16.2-17.7,30.7
	c0.3,7,3,13.7,7.8,18.9c2.7,2.9,5.9,5.4,9.5,7.1c-0.9,0.4-1.7,0.9-2.5,1.4c-13.6,8.4-18.8,25.7-12,40.2
	c5.5,11.5,16.1,18.4,28.5,18.4c4.1,0,8.1-0.8,11.9-2.2c11.3-4.1,19.9-16.1,20-27.8c0.1-6.9,0.1-14,0-20.8c0-3.2,0-6.4,0-9.6v-8.3
	c4.7,6.1,11.6,10.3,19.2,11.7c0.5,0.1,1,0.2,1.6,0.3c0.9,0.1,1.8,0.2,2.7,0.3c0.5,0,1,0,1.5,0h0.1c0.9,0,1.8,0,2.6-0.1
	c15.2-1.3,27.3-13.3,28.8-28.5C161.1,115.9,158.7,107.7,153.5,101.3z"/>
<path class="st4" d="M124.5,92.7h-0.4V96h0.4l0.3-0.1L124.5,92.7z"/>
<path class="st4" d="M100.3,89.4c-1.7,0.4-3,1.8-3.3,3.6c0,0.1,0,0.3-0.1,0.4c0,0.2,0,0.3,0,0.5h3.4L100.3,89.4z"/>
<path class="st4" d="M97,93c0.2-1.8,1.5-3.2,3.3-3.6V36.2h-3.4V94l0,0c0-0.2,0-0.3,0-0.5C97,93.3,97,93.2,97,93z"/>
<path class="st4" d="M100.3,117.4v7.4h3.4v-7.4c0,0.1,0,0.2-0.1,0.3L100.3,117.4z"/>
<polygon class="st4" points="96.9,117.1 96.9,117 96.9,124.8 100.3,124.8 100.3,117.4 "/>
<path class="st6" d="M40.3,236.3h22.9v3.6H44.9v20H61v3.3H44.9v22.6h-4.7V236.3z"/>
<path class="st6" d="M73,236.3h4.8v49.5H73V236.3z"/>
<path class="st6" d="M111.2,285.7c-0.8,0.3-1.7,0.5-2.5,0.6c-1.2,0.2-2.5,0.2-3.7,0.2c-2.7,0.1-5.5-0.5-7.9-1.7
	c-2.2-1.2-4-2.9-5.2-5c-1.4-2.5-2.4-5.2-2.9-8.1c-0.6-3.6-0.9-7.2-0.9-10.9c0-8.3,1.4-14.6,4.1-18.9c2.7-4.3,7.1-6.5,13-6.5
	c2.2,0,4.3,0.2,6.4,0.7c1.7,0.4,3.3,1.1,4.9,1.8l-0.9,3.3c-1-0.4-1.9-0.7-2.7-1c-0.8-0.3-1.6-0.5-2.4-0.7c-0.8-0.2-1.7-0.3-2.6-0.4
	c-1-0.1-2-0.2-3.1-0.1c-1.6,0-3.2,0.3-4.6,0.8c-1.5,0.6-2.8,1.7-3.8,3c-1.2,1.7-2,3.7-2.5,5.7c-0.7,3-1,6.1-0.9,9.2v5.7
	c-0.1,3.2,0.2,6.4,0.8,9.6c0.4,2.1,1.1,4.2,2.3,6c0.9,1.4,2.2,2.5,3.7,3.1c1.6,0.6,3.3,1,5,0.9c1.6,0,3.3-0.1,4.9-0.4
	c1.1-0.3,2.2-0.6,3.3-1v-17.2h-7.2V261h12v25.2h-1.9l-1.4-3.4L111.2,285.7z"/>
<path class="st6" d="M128.5,236.3h6.3l9.4,36l2,12.2l2-12.2l10.1-36h6.4v49.5h-4.5V258l1-20.4l-3.2,15.4l-9.4,32.8h-4.9l-8.9-32.1
	l-3.1-16l1,20.4v27.8h-4.3L128.5,236.3z"/>
<path class="st6" d="M177.7,285.8h-4.3l14-49.5h5.2l13.7,49.5h-4.9l-3.1-11.2H181L177.7,285.8z M191.8,249.9l-1.8-12l-2,12l-6,21.3
	h15.7L191.8,249.9z"/>
<line class="st7" x1="8.3" y1="219.7" x2="244.9" y2="219.7"/>
</svg>
