<?xml version="1.0" encoding="utf-8"?>
<!-- Generator: Adobe Illustrator 22.1.0, SVG Export Plug-In . SVG Version: 6.00 Build 0)  -->
<svg version="1.1" id="Capa_1" xmlns="http://www.w3.org/2000/svg" xmlns:xlink="http://www.w3.org/1999/xlink" x="0px" y="0px"
	 viewBox="0 0 45 58" style="enable-background:new 0 0 45 58;" xml:space="preserve">
<style type="text/css">
	.st0{fill:#FFFFFF;}
</style>
<g>
	<path class="st0" d="M44.4,12.2L43,10.8l-9.5-9.5l0,0l-0.8-0.8C32.5,0.2,32,0,31.5,0h-29C1.3,0,0,0.9,0,2.9V39v16.5V56
		c0,0.8,0.8,1.7,1.8,1.9c0.1,0,0.1,0,0.2,0c0.2,0,0.3,0,0.5,0h40c0.2,0,0.3,0,0.5,0c0.1,0,0.1,0,0.2,0c1-0.3,1.8-1.1,1.8-1.9v-0.5
		V39V14C45,13.2,44.9,12.6,44.4,12.2z M33,3.6l8.4,8.4H33V3.6z M2.5,56c-0.1,0-0.1,0-0.2,0C2.1,55.9,2,55.8,2,55.6V41h41v14.5
		c0,0.2-0.1,0.3-0.3,0.4c-0.1,0-0.1,0-0.2,0L2.5,56L2.5,56z M2,39V2.9C2,2.7,2,2,2.5,2h28.6c0,0.1-0.1,0.3-0.1,0.4V14h11.6
		c0.1,0,0.3,0,0.4-0.1l0,0v25L2,39L2,39z"/>
	<polygon class="st0" points="10.3,48.3 6,48.3 6,43.9 4.3,43.9 4.3,54 6,54 6,49.5 10.3,49.5 10.3,54 12,54 12,43.9 10.3,43.9 	"/>
	<polygon class="st0" points="13.9,45 16.9,45 16.9,54 18.6,54 18.6,45 21.6,45 21.6,43.9 13.9,43.9 	"/>
	<polygon class="st0" points="28.2,50.8 25.2,43.9 23.6,43.9 23.6,54 25.2,54 25.2,47.1 27.5,52.7 28.9,52.7 31.2,47.1 31.2,54 
		32.9,54 32.9,43.9 31.2,43.9 	"/>
	<polygon class="st0" points="37.1,43.9 35.4,43.9 35.4,54 41.7,54 41.7,52.8 37.1,52.8 	"/>
	<path class="st0" d="M17.7,17.3c-0.4-0.4-1-0.4-1.4,0l-6,6c-0.4,0.4-0.4,1,0,1.4l6,6c0.2,0.2,0.5,0.3,0.7,0.3s0.5-0.1,0.7-0.3
		c0.4-0.4,0.4-1,0-1.4L12.4,24l5.3-5.3C18.1,18.3,18.1,17.7,17.7,17.3z"/>
	<path class="st0" d="M29.7,17.3c-0.4-0.4-1-0.4-1.4,0s-0.4,1,0,1.4l5.3,5.3l-5.3,5.3c-0.4,0.4-0.4,1,0,1.4c0.2,0.2,0.5,0.3,0.7,0.3
		s0.5-0.1,0.7-0.3l6-6c0.4-0.4,0.4-1,0-1.4L29.7,17.3z"/>
</g>
</svg>
