<?xml version="1.0" encoding="utf-8"?>
<!-- Generator: Adobe Illustrator 22.1.0, SVG Export Plug-In . SVG Version: 6.00 Build 0)  -->
<svg version="1.1" id="Capa_1" xmlns="http://www.w3.org/2000/svg" xmlns:xlink="http://www.w3.org/1999/xlink" x="0px" y="0px"
	 viewBox="0 0 45 58" style="enable-background:new 0 0 45 58;" xml:space="preserve">
<style type="text/css">
	.st0{fill:#FFFFFF;}
</style>
<g>
	<path class="st0" d="M44.4,12.2l-5.8-5.8l-5-5l0,0l-0.8-0.8C32.5,0.2,32,0,31.5,0h-29C1.1,0,0,1.1,0,2.5V39v16.5
		C0,56.9,1.1,58,2.5,58h40c1.4,0,2.5-1.1,2.5-2.5V39V13.5C45,13,44.8,12.5,44.4,12.2z M33,12V8.9V3.6l8.4,8.4h-6.7H33z M17.5,31.2
		C17.3,31.1,17.2,31,17,31c-0.5,0-0.9,0.4-1,0.9C15.7,32,15.4,32,15.1,32H14c0-0.5-0.5-1-1-1s-1,0.4-1,1H9.7
		c0.3-0.4,0.5-0.8,0.6-1.3c0.2,0.2,0.4,0.3,0.6,0.3c0.6,0,1-0.4,1-1s-0.4-1-1-1c-0.1,0-0.1,0-0.2,0c0.1-0.4,0.1-0.8,0.1-1.1l0.1-0.5
		c0-0.2,0.1-0.3,0.1-0.5c0.5-0.1,0.9-0.5,0.9-1c0-0.2-0.1-0.4-0.2-0.6c0.2-0.2,0.4-0.5,0.6-0.7c0.2,0.1,0.4,0.2,0.6,0.2
		c0.6,0,1-0.4,1-1c0,0,0,0,0-0.1c0.4-0.1,0.7-0.2,1.1-0.2c0.1,0,0.2,0,0.4,0h0.2c0.1,0,0.3,0.1,0.4,0.1v0.1c0,0.6,0.4,1,1,1
		c0.3,0,0.5-0.1,0.7-0.3c0.2,0.2,0.4,0.3,0.5,0.5c0,0,0,0,0.1,0.1c-0.2,0.2-0.3,0.4-0.3,0.7c0,0.6,0.4,1,1,1h0.1v0.1l0,0
		c0,0.2,0.1,0.5,0.1,0.7c0,0.4-0.1,0.8-0.2,1.1l0,0c-0.6,0-1,0.4-1,1c0,0.2,0.1,0.4,0.2,0.5C18,30.8,17.8,31,17.5,31.2z M20,24.2
		L20,24.2c-0.6-0.8-1.4-1.5-2.4-1.9l2.1-2.1l2.8,2.8l-2,2.1C20.4,24.8,20.2,24.5,20,24.2z M24,21.6l-2.8-2.8L24,16
		c1.5-1.5,4.9-4.3,7-5.6v3.4c-1.4,1.9-3.2,4-4.2,4.9L24,21.6z M43,55.5c0,0.3-0.2,0.5-0.5,0.5h-40C2.2,56,2,55.8,2,55.5V41h41V55.5z
		 M2,39V2.5C2,2.2,2.2,2,2.5,2h28.6c0,0.1-0.1,0.3-0.1,0.4v5.8c-2.6,1.2-7,5-8.4,6.4l-7.2,7.2c-0.1,0-0.2,0-0.3,0c-3,0-5.5,2.1-6,5
		L9,26.9v0.5c0,0.9-0.3,4.1-2.3,4.5c-0.5,0.1-0.9,0.6-0.8,1.2L6.1,34h7h2.1c3.4,0,6.1-2.7,6.1-6.1c0-0.2,0-0.4,0-0.6l7-7
		c1.2-1.2,3.6-4,5.1-6.2h9.2c0.1,0,0.3,0,0.4-0.1v25H2z"/>
	<path class="st0" d="M11.9,50.4h1.2c0.5,0,1-0.1,1.4-0.2s0.8-0.4,1.1-0.7c0.3-0.3,0.6-0.6,0.7-1c0.2-0.4,0.3-0.9,0.3-1.4
		s-0.1-0.9-0.3-1.3s-0.5-0.7-0.8-1s-0.7-0.5-1.1-0.6S13.6,44,13.1,44h-2.9v10h1.6L11.9,50.4L11.9,50.4z M11.9,45.2h1.2
		c0.4,0,0.8,0.1,1,0.2c0.3,0.1,0.5,0.3,0.6,0.5s0.2,0.4,0.3,0.6c0,0.2,0.1,0.4,0.1,0.6c0,0.4,0,0.8-0.1,1c-0.1,0.3-0.2,0.5-0.4,0.6
		S14.3,49,14.1,49c-0.2,0.1-0.4,0.1-0.6,0.1H12v-3.9H11.9z"/>
	<path class="st0" d="M21,52.8c-0.2,0-0.4,0-0.6-0.1s-0.4-0.1-0.6-0.1s-0.4-0.1-0.6-0.2c-0.2-0.1-0.4-0.1-0.5-0.2l-0.3,1.2
		c0.2,0.1,0.3,0.3,0.6,0.3c0.2,0.1,0.4,0.2,0.7,0.2c0.2,0.1,0.5,0.1,0.7,0.1s0.5,0,0.7,0c0.5,0,1-0.1,1.4-0.2c0.4-0.2,0.7-0.4,1-0.6
		s0.5-0.6,0.6-0.9s0.2-0.7,0.2-1.1c0-0.5-0.1-1-0.3-1.3c-0.2-0.3-0.5-0.6-0.8-0.9s-0.7-0.4-1-0.6s-0.7-0.3-1-0.5s-0.6-0.4-0.8-0.6
		c-0.2-0.2-0.3-0.5-0.3-0.9c0-0.1,0-0.3,0.1-0.5s0.2-0.3,0.3-0.4c0.1-0.1,0.3-0.2,0.4-0.3s0.3-0.1,0.5-0.2c0.3,0,0.6,0,0.8,0
		c0.2,0,0.4,0,0.5,0.1c0.1,0,0.2,0.1,0.3,0.1s0.1,0.1,0.2,0.1c0,0,0-0.1,0.1-0.1c0-0.1,0.1-0.2,0.2-0.3s0.1-0.3,0.2-0.4
		c0.1-0.1,0.1-0.3,0.2-0.4c-0.3-0.2-0.6-0.3-1-0.4c-0.4-0.1-0.9-0.1-1.3-0.1s-0.8,0.1-1.2,0.2s-0.7,0.3-1,0.6s-0.5,0.5-0.7,0.9
		s-0.2,0.8-0.2,1.3s0.1,0.9,0.3,1.2c0.2,0.3,0.5,0.6,0.8,0.9c0.3,0.2,0.7,0.5,1,0.6s0.7,0.4,1,0.5s0.6,0.4,0.8,0.6
		c0.2,0.2,0.3,0.5,0.3,0.8c0,0.5-0.1,0.9-0.4,1.2C22,52.6,21.5,52.8,21,52.8z"/>
	<path class="st0" d="M30.4,54c0.3,0,0.6-0.1,0.9-0.2c0.3-0.1,0.6-0.3,1-0.5s0.6-0.5,0.9-0.9s0.5-0.9,0.7-1.5s0.3-1.3,0.3-2.1
		c0-0.6-0.1-1.2-0.3-1.8s-0.5-1.1-1-1.5s-1-0.8-1.6-1.1S29.9,44,29.1,44h-3v10h3.8C29.9,54,30.1,54,30.4,54z M27.6,52.8v-7.6h1
		c0.8,0,1.4,0.1,1.9,0.3s0.9,0.5,1.2,0.8s0.5,0.7,0.6,1.1c0.1,0.4,0.2,0.8,0.2,1.2c0,1.3-0.2,2.4-0.7,3.1s-1.3,1.1-2.4,1.1
		C29.3,52.8,27.6,52.8,27.6,52.8z"/>
	<circle class="st0" cx="15" cy="26" r="1"/>
	<circle class="st0" cx="17" cy="28" r="1"/>
	<circle class="st0" cx="13" cy="28" r="1"/>
	<circle class="st0" cx="15" cy="30" r="1"/>
</g>
</svg>
