<?xml version="1.0" encoding="utf-8"?>
<!-- Generator: Adobe Illustrator 22.1.0, SVG Export Plug-In . SVG Version: 6.00 Build 0)  -->
<svg version="1.1" id="Layer_1" xmlns="http://www.w3.org/2000/svg" xmlns:xlink="http://www.w3.org/1999/xlink" x="0px" y="0px"
	 viewBox="0 0 200 200" style="enable-background:new 0 0 200 200;" xml:space="preserve">
<style type="text/css">
	.st0{fill:#FF780C;}
</style>
<g>
	<path class="st0" d="M97.7,67.6c-1.5,0.8-2.5,2.4-2.5,4.2v13.8c0,1.8,1,3.4,2.5,4.2c0.1,0,0.1,0.1,0.2,0.1v-0.1
		c0.6,0.4,1.3,0.6,2.1,0.6c0.7,0,1.5-0.2,2.1-0.6v0.1c0.1,0,0.1-0.1,0.2-0.1c1.5-0.8,2.5-2.4,2.5-4.2V71.8c0-1.8-1-3.4-2.5-4.2
		c-0.1,0-0.1-0.1-0.2-0.1v0.1c-0.6-0.4-1.3-0.6-2.1-0.6c-0.7,0-1.5,0.2-2.1,0.6v-0.1C97.9,67.6,97.8,67.6,97.7,67.6z"/>
	<path class="st0" d="M49.6,93.2v9.3c14.4,8.1,30.8,12.8,48.4,13.2v-11.5c-0.1,0-0.1,0-0.2,0c-3.8-1-6.6-4.5-6.6-8.6V71.8
		c0-4.1,2.8-7.6,6.6-8.6c0.1,0,0.1,0,0.2,0V51.6h-6.8C68.3,51.6,49.6,70.3,49.6,93.2z"/>
	<path class="st0" d="M108.9,51.6h-6.8v11.5c0.1,0,0.1,0,0.2,0c3.8,1,6.6,4.5,6.6,8.6v23.7c0,4.1-2.8,7.6-6.6,8.6
		c-0.1,0-0.1,0-0.2,0v11.5c17.5-0.3,34-5.1,48.4-13.2v-9.3C150.4,70.3,131.8,51.6,108.9,51.6z"/>
	<path class="st0" d="M49.6,107.2v51.2c0,22.9,18.7,41.5,41.5,41.5h17.8c22.8,0,41.5-18.7,41.5-41.5v-51.2
		c-15,8.1-32.2,12.6-50.4,12.6S64.6,115.3,49.6,107.2z"/>
	<path class="st0" d="M103.5,33.3c0.9-2.2,2.3-4.2,4-5.9l0.3-0.3c2.1-2.1,3.8-4.5,5-7.2c1.2-2.7,1.7-5.6,1.7-8.6V0h-4.2v11.3
		c0,2.4-0.5,4.8-1.4,7c-0.9,2.2-2.3,4.2-4,5.9l-0.3,0.3c-2.1,2.1-3.8,4.5-5,7.2c-1.2,2.7-1.8,5.6-1.8,8.6v11.3h4.2V40.3
		C102.1,37.9,102.6,35.6,103.5,33.3z"/>
</g>
</svg>
