<?xml version="1.0" encoding="utf-8"?>
<!-- Generator: Adobe Illustrator 22.1.0, SVG Export Plug-In . SVG Version: 6.00 Build 0)  -->
<svg version="1.1" id="Calque_1" xmlns="http://www.w3.org/2000/svg" xmlns:xlink="http://www.w3.org/1999/xlink" x="0px" y="0px"
	 viewBox="0 0 247.9 315" style="enable-background:new 0 0 247.9 315;" xml:space="preserve">
<style type="text/css">
	.st0{fill:none;stroke:#FFFFFF;stroke-width:6.57;stroke-linejoin:bevel;}
	.st1{fill:#FFFFFF;}
</style>
<title>Plan de travail 1</title>
<path class="st0" d="M241.5,70.2l-57.1-57.1l0,0l-4-4.1c-1.9-1.9-4.4-2.9-7-2.9H20.8c-7.2,0-13,5.8-13,13v279
	c0,7.1,5.8,12.9,13,12.9h210.7c7.1,0,12.9-5.8,12.9-12.9v-221C244.4,74.5,243.4,72,241.5,70.2L241.5,70.2z M181.3,69.2l-1-60.2
	l61.2,61.2L181.3,69.2z"/>
<line class="st0" x1="11.3" y1="221.7" x2="247.9" y2="221.7"/>
<path id="WordPress_alt_" class="st1" d="M43.5,86.3c13.2-24.5,39.5-40.6,70-40.6c19.7,0,37.7,8.4,51.5,20.2
	c-3.9-0.8-8.3,0.1-12.6,2.6c-10.2,5.8-13.5,22.3-0.3,30.6c8.2,5.1,11.2,18,10.9,25.9s-19.1,44-19.1,44l-18.4-63c0,0-0.6-4.4-0.6-5.7
	c0-1.7,0.5-3.4,1.5-4.7c0.7-0.7,1.7-2.3,3-2.3h8.6v-7H90.7v7h1.5c1.6,0,3.1,2.1,4.5,3.6c1.7,1.8,3.9,8.5,6.5,15.5l6.9,22.7
	l-14.8,34.3L79,100.8c0,0,0.5-4.7,1.5-5.5c0.6-0.6,1.6-2,2.8-2h0.4v-7L43.5,86.3z M52.8,98.2c0,0-3.8-4.9-7.9-4.9h-4.1
	c-4,8.8-6.2,20.5-6.2,31.3c0.1,31.6,19.1,60,48.3,72.1L52.8,98.2z M181.3,85.7c1.5,7.1,1.2,15.7-1.7,25.2
	c-7.6,24.7-26.5,69.1-33.8,86c28.2-12.5,46.5-40.5,46.5-71.4C192.4,111.5,188.6,97.7,181.3,85.7z M115.1,152.4l-20.2,49.3
	c12.4,3,25.4,2.9,37.8-0.1L115.1,152.4z"/>
<path class="st1" d="M19.2,232.5H23l3.5,38.8l1.1,22l1.2-20.4l3.6-40.4h3.9l3.7,40.4l1.2,20.4l1.2-22l3.7-38.8h3.2l-6.5,64.7H39
	l-3.7-40l-1-20.4l-1.1,20.4l-3.7,40h-3.8L19.2,232.5z"/>
<path class="st1" d="M62.9,298.5c-1.9,0-3.7-0.9-4.9-2.4c-1.6-2.1-2.7-4.4-3.4-6.9c-1-3.5-1.7-7.1-2-10.7c-0.4-4.2-0.6-8.8-0.6-13.8
	c0-4.5,0.2-9,0.7-13.5c0.3-3.6,1-7.1,2-10.5c0.7-2.5,1.8-4.9,3.4-6.9c1.9-2.7,5.7-3.3,8.4-1.3c0.5,0.4,1,0.8,1.3,1.3
	c1.6,2,2.7,4.3,3.4,6.8c1,3.4,1.7,6.9,2,10.5c0.5,4.5,0.7,9,0.7,13.5c0,4.8-0.2,9.5-0.7,14.3c-0.3,3.6-1,7.2-2,10.7
	c-0.7,2.5-1.8,4.8-3.4,6.8C66.6,297.7,64.8,298.5,62.9,298.5z M63,292.3c1.2,0,2.3-0.5,3.1-1.4c1.1-1.3,1.8-2.9,2.2-4.6
	c0.7-2.7,1.2-5.5,1.4-8.3c0.3-3.4,0.5-7.6,0.5-12.6v-2.8c0-8.8-0.6-15.1-1.8-18.9s-3-5.6-5.4-5.6c-2.4,0-4.2,2-5.3,5.9
	s-1.8,10.3-1.8,19.1v2.7c0,5,0.2,9.1,0.5,12.5c0.2,2.8,0.7,5.5,1.4,8.2c0.4,1.7,1.2,3.2,2.3,4.5C60.8,291.7,61.9,292.3,63,292.3
	L63,292.3z"/>
<path class="st1" d="M93.2,274.5l5.4,22.6h-4l-6.1-26.4h-4.9v26.4h-3.7v-64.7h8.7c3.2,0,5.5,1.7,7,5.2c1.5,3.5,2.3,8.1,2.3,14
	c0,2.1-0.1,4.1-0.4,6.2c-0.2,1.9-0.6,3.8-1.2,5.6c-0.5,1.5-1.2,3-2.2,4.3c-0.9,1.1-2.1,1.9-3.5,2.2L93.2,274.5z M88.4,265.1
	c1.9,0.1,3.7-1.1,4.4-2.9c0.8-2,1.3-5.3,1.3-10V251c0-1.9-0.1-3.8-0.3-5.8c-0.1-1.3-0.5-2.5-1-3.7c-0.4-0.8-1-1.5-1.8-1.9
	c-0.8-0.4-1.7-0.6-2.7-0.5h-4.7v26L88.4,265.1z"/>
<path class="st1" d="M104.2,232.5h7.9c4,0,7,2.8,9,8.3c2,5.5,2.9,13.5,2.9,23.9c0,11-1,19.2-3,24.5c-2,5.3-5.1,8-9.4,8h-7.6
	L104.2,232.5z M111.5,290.9c1.3,0,2.7-0.3,3.8-1c1.3-0.9,2.3-2.3,2.7-3.8c0.9-2.5,1.4-5.1,1.7-7.7c0.4-4.2,0.6-8.5,0.5-12.7v-2.5
	c0-3.9-0.1-7.9-0.5-11.8c-0.2-2.5-0.8-5-1.6-7.4c-0.5-1.5-1.5-2.8-2.8-3.8c-1.2-0.7-2.5-1-3.9-1h-3.6v51.6L111.5,290.9z"/>
<path class="st1" d="M130.1,232.5h8.7c1.5,0,3,0.5,4.1,1.5c1.3,1.2,2.3,2.6,2.9,4.2c0.8,2,1.4,4.2,1.7,6.4c0.7,5.3,0.7,10.7,0,16
	c-0.3,2.2-0.8,4.4-1.6,6.5c-0.6,1.7-1.6,3.1-2.9,4.4c-1.1,1-2.6,1.6-4.1,1.6h-5.1v24.1h-3.7V232.5z M138.5,267c2,0,3.8-1.3,4.4-3.2
	c0.8-2.1,1.3-5.7,1.3-10.7v-1.2c0-4.8-0.4-8.2-1.3-10.1c-0.7-1.8-2.5-2.9-4.4-2.8h-4.7v28L138.5,267z"/>
<path class="st1" d="M166.7,274.5l5.4,22.6h-4l-6-26.5h-4.9v26.4h-3.7v-64.7h8.7c3.2,0,5.5,1.7,7,5.2c1.5,3.5,2.3,8.1,2.3,14
	c0,2.1-0.1,4.1-0.4,6.2c-0.2,1.9-0.6,3.8-1.2,5.6c-0.5,1.5-1.2,3-2.2,4.3c-0.9,1.1-2.1,1.9-3.5,2.2L166.7,274.5z M161.9,265.1
	c1.9,0.1,3.7-1.1,4.4-2.9c0.9-2,1.3-5.3,1.3-10V251c0-1.9-0.1-3.8-0.3-5.8c-0.1-1.3-0.5-2.5-1-3.7c-0.4-0.8-1-1.5-1.8-1.9
	c-0.8-0.4-1.7-0.6-2.7-0.5h-4.7v26L161.9,265.1z"/>
<path class="st1" d="M177.7,232.5h15.3v6.8h-11.7v21.5h10.1v6.3h-10.1v23.5h12.4v6.7h-16.1V232.5z"/>
<path class="st1" d="M206.3,298.5c-1,0-1.9-0.1-2.8-0.4c-0.8-0.2-1.5-0.6-2.3-1c-0.7-0.4-1.3-0.9-1.8-1.4c-0.5-0.5-1-1.1-1.5-1.7
	l0.7-5.9c1,1.1,2.2,2.1,3.4,3c1.1,0.8,2.3,1.2,3.6,1.1c1.8,0.1,3.4-0.9,4.3-2.4c0.9-1.6,1.4-4.7,1.4-9.2c0-1.5-0.1-3-0.2-4.4
	c-0.1-1.1-0.4-2.2-0.8-3.2c-0.4-0.9-1-1.7-1.6-2.4c-0.8-0.8-1.7-1.6-2.7-2.2c-1.2-0.8-2.3-1.7-3.4-2.7c-1-1-1.9-2.3-2.5-3.6
	c-0.7-1.7-1.3-3.5-1.5-5.3c-0.4-2.6-0.5-5.2-0.5-7.8c0-5.8,0.7-10.3,2.2-13.2c1.5-3,3.6-4.5,6.3-4.5c1.5-0.1,2.9,0.3,4.2,0.9
	c1.1,0.6,2.1,1.4,3,2.3l-0.6,6.3l-1.6-1.1c-0.5-0.3-1-0.6-1.5-0.8c-0.5-0.2-1.1-0.4-1.6-0.5c-0.7-0.1-1.3-0.2-2-0.2
	c-1.6-0.1-3.1,0.8-3.8,2.2c-0.8,1.5-1.2,4.1-1.2,7.9c0,1.5,0.1,3,0.2,4.4c0.1,1.1,0.4,2.1,0.8,3.1c0.4,0.9,1,1.7,1.7,2.3
	c0.9,0.8,1.8,1.5,2.8,2.2c1.2,0.8,2.3,1.7,3.3,2.7c1,1.1,1.9,2.3,2.5,3.7c0.8,1.7,1.3,3.5,1.6,5.4c0.4,2.6,0.6,5.2,0.6,7.8
	c0,6.2-0.8,10.8-2.3,14S209.1,298.6,206.3,298.5z"/>
<path class="st1" d="M227.4,298.5c-1,0-1.9-0.1-2.8-0.4c-0.8-0.2-1.5-0.6-2.3-1c-0.7-0.4-1.3-0.9-1.8-1.4c-0.5-0.5-1-1.1-1.5-1.7
	l0.7-5.9c1,1.1,2.2,2.1,3.4,3c1.1,0.8,2.3,1.2,3.6,1.1c1.8,0.1,3.5-0.9,4.3-2.4c0.9-1.6,1.4-4.7,1.4-9.2c0-1.5-0.1-3-0.2-4.4
	c-0.1-1.1-0.4-2.2-0.8-3.2c-0.4-0.9-0.9-1.7-1.6-2.4c-0.8-0.8-1.7-1.6-2.7-2.2c-1.2-0.8-2.4-1.7-3.4-2.7c-1-1-1.9-2.3-2.5-3.6
	c-0.7-1.7-1.2-3.5-1.5-5.3c-0.4-2.6-0.5-5.2-0.5-7.8c0-5.8,0.7-10.3,2.2-13.2s3.6-4.5,6.3-4.5c1.5-0.1,2.9,0.3,4.2,0.9
	c1.1,0.6,2.1,1.4,3,2.3l-0.6,6.3l-1.6-1.1c-0.5-0.3-1-0.6-1.5-0.8c-1.1-0.5-2.4-0.8-3.6-0.8c-1.6-0.1-3.1,0.8-3.8,2.2
	c-0.8,1.5-1.2,4.1-1.2,7.9c0,1.5,0.1,3,0.2,4.4c0.1,1.1,0.4,2.1,0.8,3.1c0.4,0.9,1,1.7,1.7,2.3c0.9,0.8,1.8,1.5,2.8,2.2
	c1.2,0.8,2.3,1.7,3.3,2.7c1,1.1,1.9,2.3,2.5,3.7c0.8,1.7,1.3,3.5,1.6,5.4c0.4,2.6,0.6,5.2,0.6,7.8c0,6.2-0.8,10.8-2.3,14
	S230.2,298.6,227.4,298.5z"/>
</svg>
